<?xml version="1.0" encoding="utf-8"?>
<!-- Generator: Adobe Illustrator 16.0.0, SVG Export Plug-In . SVG Version: 6.00 Build 0)  -->
<!DOCTYPE svg PUBLIC "-//W3C//DTD SVG 1.1//EN" "http://www.w3.org/Graphics/SVG/1.1/DTD/svg11.dtd">
<svg version="1.1" id="Layer_1" xmlns="http://www.w3.org/2000/svg" xmlns:xlink="http://www.w3.org/1999/xlink" x="0px" y="0px"
	 width="70px" height="70px" viewBox="0 0 70 70" enable-background="new 0 0 70 70" xml:space="preserve">
<rect x="10.763" y="36.625" fill="#D8DCEA" width="48.077" height="31.826"/>
<path fill="#E6CC2C" d="M50.824,12.952l-5.279-6.328c0,0-5.873-1.821-6.158-1.821c-0.295,0-6.253-0.398-6.253-0.398l-7.795,3.091
	l-4.229,4.269l-3.08,5.442l-0.479,2.598h0.866l2.504-0.866h3.654l2.309,1.44l1.827,1.118l3.268-2.378l4.04-0.181l2.599,0.181
	l2.502,2.378l2.299-1.02l2.697-1.358h4.043l2.113,0.78v-0.78L50.824,12.952z"/>
<path fill="#304496" d="M59.553,35H43.66v-4.339c0-0.793-0.643-1.443-1.437-1.443h-5.78v-8.475c2.43,0.447,4.47,2.013,5.564,4.136
	c1.309-2.535,3.961-4.271,7.014-4.271c2.508,0,4.75,1.182,6.203,3.019v-0.183c0-10.684-8.285-19.431-18.781-20.173V1.773l0,0
	c0-0.795-0.646-1.443-1.443-1.443c-0.8,0-1.447,0.647-1.447,1.443c0,0.001,0.003,0.003,0.003,0.006V3.27
	c-10.498,0.742-18.779,9.489-18.779,20.173v0.184c1.446-1.837,3.684-3.019,6.199-3.019c3.056,0,5.702,1.737,7.011,4.271
	c1.104-2.123,3.142-3.689,5.569-4.136v8.475h-5.779c-0.797,0-1.445,0.65-1.445,1.443V35h-15.89C9.647,35,9,35.641,9,36.445v31.771
	c0,0.795,0.647,1.453,1.441,1.453h49.111c0.805,0,1.447-0.658,1.447-1.453V36.445C61,35.641,60.357,35,59.553,35z M29.318,19.338
	c-0.475,0.296-0.914,0.619-1.332,0.976c-0.413-0.357-0.857-0.681-1.327-0.976c-1.701-1.057-3.666-1.617-5.684-1.617
	c-0.832,0-1.65,0.09-2.441,0.276c0.838-2.541,2.26-4.865,4.211-6.813C26.018,7.909,30.367,6.106,35,6.106s8.979,1.803,12.262,5.078
	c1.934,1.947,3.361,4.271,4.209,6.813c-0.805-0.186-1.617-0.276-2.449-0.276c-2.012,0-3.984,0.56-5.682,1.616
	c-0.475,0.295-0.912,0.62-1.332,0.977c-0.418-0.357-0.857-0.681-1.326-0.977c-1.701-1.056-3.666-1.616-5.682-1.616
	C32.983,17.721,31.022,18.281,29.318,19.338z M49.447,37.885v28.893H20.556V37.885H49.447z M29.224,32.106h11.551V35H29.224V32.106z
	 M11.886,37.885h5.783v28.893h-5.783V37.885z M58.111,66.777H52.34V37.885h5.771V66.777z"/>
</svg>
