<?xml version="1.0" encoding="utf-8"?>
<!-- Generator: Adobe Illustrator 16.0.0, SVG Export Plug-In . SVG Version: 6.00 Build 0)  -->
<!DOCTYPE svg PUBLIC "-//W3C//DTD SVG 1.1//EN" "http://www.w3.org/Graphics/SVG/1.1/DTD/svg11.dtd">
<svg version="1.1" id="Layer_1" xmlns="http://www.w3.org/2000/svg" xmlns:xlink="http://www.w3.org/1999/xlink" x="0px" y="0px"
	 width="70px" height="70px" viewBox="0 0 70 70" enable-background="new 0 0 70 70" xml:space="preserve">
<polygon fill="#D8DCEA" points="21.581,49.676 9.48,50.404 3.282,53.893 1.915,61.889 4.375,63.164 25.613,63.164 64.169,63.164 
	68.086,61.889 69.18,49.311 "/>
<g>
	<path fill="#D8DCEA" d="M21.581,62.441c0,2.88-2.335,5.217-5.215,5.217c-2.881,0-5.216-2.337-5.216-5.217
		c0-2.879,2.335-5.217,5.216-5.217C19.246,57.225,21.581,59.563,21.581,62.441z"/>
	<path fill="#D8DCEA" d="M59.174,62.674c0,2.883-2.333,5.217-5.215,5.217s-5.214-2.334-5.214-5.217c0-2.881,2.332-5.214,5.214-5.214
		S59.174,59.793,59.174,62.674z"/>
</g>
<polygon fill="#E6E9ED" points="47.031,40.424 36.457,39.604 20.69,47.67 25.566,49.311 59.336,49.311 60.293,47.67 "/>
<path fill="#E6CC2C" d="M54.286,18.303l-5.332-6.387c0,0-5.935-1.84-6.224-1.84c-0.292,0-6.313-0.4-6.313-0.4l-7.864,3.119
	l-4.272,4.309l-3.107,5.499l-0.485,2.621h0.874l2.525-0.874h3.689l2.331,1.456l1.844,1.129l3.302-2.403l4.078-0.182l2.621,0.182
	l2.525,2.403l2.33-1.032l2.718-1.372h4.08l2.137,0.79v-0.79L54.286,18.303z"/>
<path fill="#304496" d="M70,49.193c0-0.804-0.653-1.457-1.456-1.457h-5.273h-1.289c0,0-6.1-9.885-21.149-9.885
	c-0.493,0-0.979,0.011-1.457,0.032V26.261c2.453,0.454,4.51,2.031,5.619,4.177c1.324-2.561,3.996-4.311,7.079-4.311
	c2.539,0,4.802,1.19,6.259,3.043v-0.185c0-10.785-8.361-19.616-18.957-20.364V7.11l0,0c0-0.806-0.653-1.458-1.457-1.458
	c-0.807,0-1.461,0.652-1.461,1.458c0,0.001,0,0.002,0,0.003v1.508C25.864,9.369,17.5,18.2,17.5,28.985v0.185
	c1.458-1.854,3.721-3.043,6.261-3.043c3.082,0,5.754,1.75,7.077,4.311c1.111-2.146,3.168-3.722,5.618-4.176v11.881
	c-12.063,1.627-17.844,9.576-17.844,9.576C-6.015,47.832,0.892,64.102,0.892,64.102h7.965C9.521,67.464,12.484,70,16.042,70
	c3.557,0,6.521-2.536,7.184-5.898h23.549C47.438,67.464,50.402,70,53.957,70c3.56,0,6.522-2.536,7.187-5.898h3.024
	c0.043,0,0.086,0,0.126,0c2.617,0,4.168-0.604,4.976-1.074c0.021-0.014,0.043-0.028,0.063-0.043C69.735,62.724,70,62.275,70,61.762
	l0,0V49.193L70,49.193z M32.18,24.845c-0.474,0.293-0.921,0.623-1.341,0.981c-0.418-0.359-0.866-0.688-1.339-0.981
	c-1.721-1.069-3.704-1.635-5.738-1.635c-0.842,0-1.667,0.094-2.468,0.28c0.845-2.563,2.285-4.914,4.25-6.878
	c3.305-3.305,7.699-5.126,12.375-5.126c4.674,0,9.066,1.821,12.374,5.125c1.965,1.964,3.404,4.314,4.25,6.879
	c-0.803-0.186-1.627-0.28-2.469-0.28c-2.033,0-4.019,0.566-5.738,1.635c-0.474,0.293-0.921,0.623-1.341,0.981
	c-0.419-0.359-0.867-0.688-1.338-0.981c-1.722-1.069-3.706-1.635-5.738-1.635C35.885,23.21,33.9,23.776,32.18,24.845z
	 M55.114,44.997c1.383,0.974,2.424,1.959,3.141,2.739H45.207v-6.643c1.444,0.221,2.831,0.554,4.153,1
	C51.444,42.793,53.38,43.771,55.114,44.997z M32.089,42.109c2.741-0.889,5.685-1.342,8.743-1.342c0.492,0,0.979,0.013,1.461,0.036
	v6.933H22.544c0.812-0.773,1.935-1.725,3.369-2.666C27.816,43.818,29.894,42.822,32.089,42.109z M16.042,67.082
	c-2.431,0-4.408-1.977-4.408-4.406s1.977-4.408,4.408-4.408c2.43,0,4.407,1.979,4.407,4.408S18.472,67.082,16.042,67.082z
	 M53.957,67.082c-2.429,0-4.405-1.977-4.405-4.406s1.977-4.408,4.405-4.408c2.431,0,4.409,1.979,4.409,4.408
	S56.388,67.082,53.957,67.082z M64.189,61.186h-0.013h-0.008H61.13c-0.688-3.332-3.637-5.834-7.173-5.834
	c-3.533,0-6.481,2.502-7.169,5.834H23.214c-0.688-3.332-3.637-5.834-7.171-5.834s-6.483,2.502-7.172,5.834H3.096
	c-0.286-1.564-0.374-3.882,0.926-5.828c2.039-3.055,7.09-4.688,14.605-4.725l0.921,0.013v0.009h47.533v10.159
	c-0.577,0.188-1.478,0.372-2.788,0.372C64.261,61.186,64.224,61.186,64.189,61.186z"/>
<path fill="#304496" d="M40.832,52.436h-2.914c-0.807,0-1.461,0.651-1.461,1.457c0,0.807,0.654,1.459,1.461,1.459h2.914
	c0.808,0,1.461-0.652,1.461-1.459C42.293,53.087,41.64,52.436,40.832,52.436z"/>
<path fill="#304496" d="M16.042,61.218c-0.806,0-1.459,0.651-1.459,1.459c0,0.804,0.653,1.456,1.459,1.456
	c0.805,0,1.458-0.652,1.458-1.456C17.5,61.869,16.848,61.218,16.042,61.218z"/>
<path fill="#304496" d="M53.957,61.218c-0.804,0-1.457,0.651-1.457,1.459c0,0.804,0.653,1.456,1.457,1.456
	c0.808,0,1.462-0.652,1.462-1.456C55.419,61.869,54.765,61.218,53.957,61.218z"/>
</svg>
