<?xml version="1.0" encoding="utf-8"?>
<!-- Generator: Adobe Illustrator 16.0.0, SVG Export Plug-In . SVG Version: 6.00 Build 0)  -->
<!DOCTYPE svg PUBLIC "-//W3C//DTD SVG 1.1//EN" "http://www.w3.org/Graphics/SVG/1.1/DTD/svg11.dtd">
<svg version="1.1" id="Layer_1" xmlns="http://www.w3.org/2000/svg" xmlns:xlink="http://www.w3.org/1999/xlink" x="0px" y="0px"
	 width="50px" height="50px" viewBox="0 0 50 50" enable-background="new 0 0 50 50" xml:space="preserve">
<polyline fill="#4FBF9F" points="49.216,49.215 49.216,32.344 37.107,32.344 37.107,37.654 25,37.654 25,42.574 12.892,42.574 
	12.892,45.393 0.784,45.393 0.784,49.215 "/>
<path id="SVGCleanerId_0" fill="#FFFFFF" d="M41.25,14.763c-0.393-0.784-1.405-1.095-2.189-0.858l-4.764,1.332l-2.654-3.75
	l-3.668-2.107c-1.717-0.939-3.75-0.939-5.466,0l-4.297,2.418c-0.237,0.155-0.392,0.311-0.547,0.547l-2.811,4.689
	c-0.465,0.858-0.311,1.953,0.547,2.5c0.784,0.466,1.797,0.237,2.345-0.465l2.345-3.129c0.703-0.939,1.715-1.642,2.892-1.953l0,0
	l-1.487,7.189l-0.858,4.216l-0.858,3.668l-5.858,6.797c-0.784,0.857-0.858,2.189-0.155,3.129c0.939,1.168,2.655,1.168,3.595,0.082
	l6.716-7.811l1.095-3.75c0.237-0.857,1.013-1.486,1.953-1.332c1.013,0.156,1.715,1.096,1.56,2.035l-0.702,4.061
	c-0.237,1.25,0.547,2.5,1.715,2.811c1.332,0.311,2.582-0.549,2.811-1.879l1.014-5.311l0,0c0.621-2.5-0.785-5.082-3.203-6.014
	l-0.857-0.311l1.095-5.155l2.189,3.047l7.345-2.034C41.25,17.189,41.871,15.858,41.25,14.763z"/>
<circle fill="#FFFFFF" cx="31.486" cy="4.371" r="3.595"/>
<path id="SVGCleanerId_1" fill="#193651" d="M31.486,8.75c-2.418,0-4.37-1.953-4.37-4.371c0-2.418,1.952-4.379,4.37-4.379
	c2.419,0,4.371,1.953,4.371,4.379C35.857,6.797,33.905,8.75,31.486,8.75z M31.486,1.561c-1.56,0-2.811,1.25-2.811,2.811
	s1.251,2.811,2.811,2.811c1.561,0,2.811-1.25,2.811-2.811S33.047,1.561,31.486,1.561z"/>
<polyline fill="#E6CC2C" points="49.216,49.215 49.216,32.344 37.107,32.344 37.107,37.654 25,37.654 25,42.574 12.892,42.574 
	12.892,45.393 0.784,45.393 0.784,49.215 "/>
<g>
	<rect x="34.845" y="44.525" fill="#E6E9ED" width="1.561" height="1.561"/>
	<rect x="29.918" y="44.525" fill="#E6E9ED" width="1.561" height="1.561"/>
	<rect x="39.689" y="44.525" fill="#E6E9ED" width="1.561" height="1.561"/>
	<rect x="44.534" y="44.525" fill="#E6E9ED" width="1.561" height="1.561"/>
</g>
<path id="SVGCleanerId_0_1_" fill="#FFFFFF" d="M41.25,14.763c-0.393-0.784-1.405-1.095-2.189-0.858l-4.764,1.332l-2.654-3.75
	l-3.668-2.107c-1.717-0.939-3.75-0.939-5.466,0l-4.297,2.418c-0.237,0.155-0.392,0.311-0.547,0.547l-2.811,4.689
	c-0.465,0.858-0.311,1.953,0.547,2.5c0.784,0.466,1.797,0.237,2.345-0.465l2.345-3.129c0.703-0.939,1.715-1.642,2.892-1.953l0,0
	l-1.487,7.189l-0.858,4.216l-0.858,3.668l-5.858,6.797c-0.784,0.857-0.858,2.189-0.155,3.129c0.939,1.168,2.655,1.168,3.595,0.082
	l6.716-7.811l1.095-3.75c0.237-0.857,1.013-1.486,1.953-1.332c1.013,0.156,1.715,1.096,1.56,2.035l-0.702,4.061
	c-0.237,1.25,0.547,2.5,1.715,2.811c1.332,0.311,2.582-0.549,2.811-1.879l1.014-5.311l0,0c0.621-2.5-0.785-5.082-3.203-6.014
	l-0.857-0.311l1.095-5.155l2.189,3.047l7.345-2.034C41.25,17.189,41.871,15.858,41.25,14.763z"/>
<circle fill="#FFFFFF" cx="31.486" cy="4.371" r="3.595"/>
<path id="SVGCleanerId_1_1_" fill="#304496" d="M31.486,8.75c-2.418,0-4.37-1.953-4.37-4.371c0-2.418,1.952-4.379,4.37-4.379
	c2.419,0,4.371,1.953,4.371,4.379C35.857,6.797,33.905,8.75,31.486,8.75z M31.486,1.561c-1.56,0-2.811,1.25-2.811,2.811
	s1.251,2.811,2.811,2.811c1.561,0,2.811-1.25,2.811-2.811S33.047,1.561,31.486,1.561z"/>
<path fill="#304496" d="M15.547,40.703c-0.939,0-1.797-0.393-2.418-1.168c-0.939-1.17-0.857-2.893,0.155-4.061l5.703-6.643
	l0.784-3.513l2.035-9.918c-0.466,0.311-0.858,0.703-1.168,1.095l-2.345,3.129c-0.784,1.013-2.263,1.25-3.358,0.621
	c-0.547-0.311-0.939-0.858-1.095-1.561s-0.082-1.405,0.311-2.034l2.81-4.69c0.237-0.311,0.466-0.629,0.858-0.784l4.297-2.418
	c1.871-1.095,4.371-1.095,6.25,0l3.831,2.19l2.5,3.439l4.217-1.168c1.168-0.311,2.5,0.155,3.129,1.168
	c0.392,0.703,0.465,1.56,0.154,2.345c-0.311,0.784-0.939,1.332-1.715,1.561l-7.893,2.189l-1.716-2.108l-0.62,2.811l0.236,0.082
	c2.811,1.013,4.371,3.987,3.668,6.87l-1.013,5.311c-0.311,1.488-1.561,2.5-3.048,2.5c-0.236,0-0.465,0-0.702-0.082
	c-1.642-0.391-2.655-2.033-2.345-3.668l0.703-4.061c0.081-0.236,0-0.547-0.156-0.783c-0.154-0.238-0.392-0.393-0.702-0.393
	c-0.466-0.082-0.939,0.311-1.095,0.785l-1.168,3.904l-6.822,7.875C17.263,40.311,16.405,40.703,15.547,40.703z M23.905,12.966
	l-2.582,12.656l-0.939,3.904l-5.94,6.953c-0.547,0.629-0.547,1.486-0.082,2.107c0.621,0.703,1.797,0.785,2.418,0.082l6.561-7.654
	l1.013-3.596c0.393-1.25,1.561-2.034,2.737-1.953c0.703,0.082,1.332,0.466,1.716,1.013c0.384,0.547,0.62,1.25,0.466,1.953
	l-0.703,3.986c-0.155,0.857,0.393,1.717,1.168,1.879c0.858,0.236,1.717-0.393,1.879-1.25l1.014-5.311
	c0.547-2.189-0.621-4.37-2.736-5.155l-1.488-0.547l1.643-7.5l2.893,3.987l6.871-1.879c0.311-0.082,0.621-0.311,0.703-0.621
	c0.154-0.311,0.081-0.703-0.082-1.013c-0.237-0.392-0.785-0.621-1.332-0.466l-5.195,1.471l-2.811-3.905l-3.514-1.953
	c-1.405-0.785-3.284-0.785-4.689,0l-4.297,2.418c-0.082,0.082-0.237,0.155-0.237,0.237L15.548,17.5
	c-0.155,0.237-0.155,0.547-0.155,0.858c0.082,0.237,0.237,0.466,0.392,0.547c0.466,0.237,1.013,0.155,1.332-0.237l2.345-3.129
	c0.858-1.095,2.035-1.871,3.285-2.263L23.905,12.966z"/>
<polygon fill="#304496" points="50,49.215 48.439,49.215 48.439,33.121 37.893,33.121 37.893,38.439 25.784,38.439 25.784,43.357 
	13.668,43.357 13.668,46.168 1.561,46.168 1.561,49.215 0,49.215 0,44.607 12.108,44.607 12.108,41.797 24.216,41.797 
	24.216,36.871 36.332,36.871 36.332,31.561 50,31.561 "/>
</svg>
