<?xml version="1.0" encoding="utf-8"?>
<!-- Generator: Adobe Illustrator 16.0.0, SVG Export Plug-In . SVG Version: 6.00 Build 0)  -->
<!DOCTYPE svg PUBLIC "-//W3C//DTD SVG 1.1//EN" "http://www.w3.org/Graphics/SVG/1.1/DTD/svg11.dtd">
<svg version="1.1" id="Layer_1" xmlns="http://www.w3.org/2000/svg" xmlns:xlink="http://www.w3.org/1999/xlink" x="0px" y="0px"
	 width="70px" height="70px" viewBox="0 0 70 70" enable-background="new 0 0 70 70" xml:space="preserve">
<rect x="11.409" y="36.486" fill="#D8DCEA" width="49.149" height="31.643"/>
<g>
	<polygon fill="#E6CC2C" points="43.174,49.927 38.748,49.927 38.748,45.557 33.971,45.557 33.971,49.927 29.544,49.927 
		29.544,54.686 33.971,54.686 33.971,59.185 38.748,59.185 38.748,54.686 43.174,54.686 	"/>
	<path fill="#E6CC2C" d="M51.483,12.863l-5.315-6.372c0,0-5.925-1.833-6.214-1.833c-0.287,0-6.296-0.4-6.296-0.4L25.815,7.37
		l-4.257,4.296l-3.101,5.48l-0.484,2.616h0.872l2.518-0.872h3.682l2.325,1.45l1.838,1.126l3.292-2.394l4.062-0.182l2.613,0.182
		l2.522,2.394l2.329-1.026l2.71-1.368h4.062l2.125,0.786v-0.786L51.483,12.863z"/>
</g>
<path fill="#304496" d="M60.899,35.056H44.897v-4.363c0-0.799-0.644-1.455-1.441-1.455h-5.82v-8.533
	c2.448,0.451,4.499,2.028,5.602,4.164c1.318-2.551,3.984-4.3,7.062-4.3c2.523,0,4.783,1.191,6.246,3.04v-0.184
	c0-10.758-8.343-19.564-18.909-20.312V1.606l0,0c0-0.8-0.659-1.452-1.458-1.452s-1.457,0.652-1.457,1.452c0,0.002,0,0.004,0,0.006
	v1.501c-10.564,0.748-18.905,9.554-18.905,20.311v0.185c1.457-1.85,3.711-3.041,6.245-3.041c3.074,0,5.741,1.75,7.059,4.301
	c1.11-2.137,3.16-3.713,5.602-4.164v8.533h-5.816c-0.799,0-1.455,0.656-1.455,1.454v4.364H11.454c-0.802,0-1.454,0.655-1.454,1.459
	v31.989c0,0.802,0.652,1.464,1.454,1.464h49.445c0.812,0,1.457-0.662,1.457-1.464V36.516C62.356,35.711,61.711,35.056,60.899,35.056
	z M30.458,19.292c-0.475,0.299-0.917,0.623-1.338,0.982c-0.418-0.359-0.863-0.685-1.338-0.982c-1.714-1.064-3.69-1.627-5.721-1.627
	c-0.838,0-1.662,0.09-2.461,0.278c0.844-2.559,2.277-4.898,4.242-6.86c3.296-3.298,7.672-5.113,12.336-5.113
	c4.665,0,9.044,1.815,12.348,5.113c1.949,1.96,3.387,4.301,4.236,6.86c-0.811-0.188-1.628-0.278-2.463-0.278
	c-2.028,0-4.015,0.563-5.722,1.627c-0.477,0.297-0.917,0.623-1.34,0.982c-0.42-0.359-0.863-0.685-1.339-0.982
	c-1.707-1.064-3.699-1.627-5.721-1.627C34.154,17.665,32.171,18.229,30.458,19.292z M30.362,32.148h11.631v2.908H30.362V32.148z
	 M59.45,67.057H12.909V37.964H59.45V67.057z"/>
<path fill="#304496" d="M31.814,61.229h8.734v-4.35h4.35v-8.739h-4.35v-4.35h-8.734v4.35H27.45v8.739h4.364V61.229z M30.362,53.968
	v-2.914h1.452h2.907v-2.913v-1.445h2.915v1.445v2.913h2.912h1.445v2.914h-1.445h-2.912v2.912v1.445h-2.915V56.88v-2.912h-2.907
	H30.362z"/>
</svg>
