<?xml version="1.0" encoding="utf-8"?>
<!-- Generator: Adobe Illustrator 16.0.0, SVG Export Plug-In . SVG Version: 6.00 Build 0)  -->
<!DOCTYPE svg PUBLIC "-//W3C//DTD SVG 1.1//EN" "http://www.w3.org/Graphics/SVG/1.1/DTD/svg11.dtd">
<svg version="1.1" id="Layer_1" xmlns="http://www.w3.org/2000/svg" xmlns:xlink="http://www.w3.org/1999/xlink" x="0px" y="0px"
	 width="70px" height="70px" viewBox="0 0 70 70" enable-background="new 0 0 70 70" xml:space="preserve">
<polygon fill="#D8DCEA" points="52.582,45.623 34.912,28.248 17.27,45.623 17.27,68.086 52.582,68.086 "/>
<rect x="30.015" y="53.961" fill="#D8DCEA" width="9.374" height="14.125"/>
<path fill="#E6CC2C" d="M51.115,12.563l-5.377-6.444c0,0-5.981-1.855-6.274-1.855c-0.295,0-6.366-0.404-6.366-0.404L25.17,7.002
	l-4.31,4.344l-3.131,5.546l-0.489,2.646h0.882l2.543-0.883h3.72l2.353,1.469l1.86,1.135l3.324-2.423l4.117-0.181l2.642,0.181
	l2.549,2.423l2.345-1.036l2.738-1.387h4.113l2.156,0.8v-0.8L51.115,12.563z"/>
<path fill="#304496" d="M59.485,50.137h0.003L36.435,27.039v-6.544c2.47,0.456,4.549,2.046,5.665,4.206
	c1.331-2.578,4.026-4.347,7.139-4.347c2.559,0,4.834,1.202,6.308,3.072v-0.19c0-10.869-8.427-19.778-19.111-20.534V1.183l0,0
	c0-0.814-0.659-1.472-1.47-1.472c-0.815,0-1.474,0.658-1.474,1.472c0,0.003,0.003,0.003,0.003,0.004v1.514
	c-10.681,0.757-19.119,9.666-19.119,20.535v0.19c1.474-1.872,3.751-3.073,6.314-3.073c3.104,0,5.806,1.769,7.135,4.348
	c1.119-2.16,3.193-3.75,5.669-4.206v6.544l-23.15,23.096l0,0c0,0,0,0.002-0.003,0.002c-0.571,0.568-0.571,1.498,0,2.082
	c0.581,0.58,1.512,0.58,2.081,0l0,0l3.375-3.369v19.977l0,0c0.003,0.383,0.146,0.752,0.427,1.037
	c0.292,0.281,0.666,0.426,1.047,0.426h35.288l0,0c0.816,0,1.465-0.646,1.465-1.471V48.844l3.369,3.375l0,0c0,0,0,0,0.003,0
	c0.583,0.58,1.511,0.58,2.091,0C60.053,51.635,60.057,50.705,59.485,50.137z M29.178,19.062c-0.481,0.299-0.929,0.629-1.354,0.995
	c-0.422-0.366-0.873-0.698-1.35-0.995c-1.733-1.08-3.735-1.644-5.786-1.644c-0.851,0-1.684,0.093-2.49,0.278
	c0.854-2.586,2.304-4.956,4.288-6.939c3.329-3.327,7.763-5.166,12.477-5.166c4.709,0,9.147,1.838,12.471,5.166
	c1.992,1.982,3.439,4.353,4.293,6.939c-0.813-0.186-1.645-0.278-2.49-0.278c-2.05,0-4.053,0.563-5.791,1.644
	c-0.471,0.297-0.925,0.629-1.348,0.995c-0.426-0.366-0.873-0.698-1.354-0.995c-1.729-1.08-3.73-1.644-5.781-1.644
	S30.916,17.982,29.178,19.062z M32.019,55.588h5.884v11.766h-5.884V55.588L32.019,55.588z M51.093,67.354H40.842v-13.23
	c0-0.824-0.654-1.469-1.467-1.469h-8.823c-0.811,0-1.467,0.645-1.467,1.469c0,0.025,0.002,0.049,0.002,0.088h-0.002v13.143H18.737
	V45.92l16.225-16.194l16.131,16.163V67.354L51.093,67.354z"/>
</svg>
