<?xml version="1.0" encoding="utf-8"?>
<!-- Generator: Adobe Illustrator 16.0.0, SVG Export Plug-In . SVG Version: 6.00 Build 0)  -->
<!DOCTYPE svg PUBLIC "-//W3C//DTD SVG 1.1//EN" "http://www.w3.org/Graphics/SVG/1.1/DTD/svg11.dtd">
<svg version="1.1" id="Layer_1" xmlns="http://www.w3.org/2000/svg" xmlns:xlink="http://www.w3.org/1999/xlink" x="0px" y="0px"
	 width="70px" height="70px" viewBox="0 0 70 70" enable-background="new 0 0 70 70" xml:space="preserve">
<g>
	<path fill="#D8DCEA" d="M24.273,55.578c0,5.553-4.5,10.053-10.052,10.053c-5.551,0-10.051-4.5-10.051-10.053
		c0-5.55,4.5-10.051,10.051-10.051C19.773,45.527,24.273,50.028,24.273,55.578z"/>
	<path fill="#D8DCEA" d="M65.469,55.416c0,5.552-4.501,10.053-10.051,10.053c-5.552,0-10.053-4.501-10.053-10.053
		c0-5.55,4.501-10.051,10.053-10.051C60.969,45.365,65.469,49.866,65.469,55.416z"/>
</g>
<path fill="#DCC432" d="M64.35,23.652L54.342,11.66c0,0-11.139-3.457-11.686-3.457S30.808,7.451,30.808,7.451l-14.766,5.855
	l-8.021,8.09L2.188,31.719l-0.911,4.922h1.642L7.656,35h6.928l4.375,2.734l3.463,2.119l6.198-4.512L36.276,35l4.923,0.342
	l4.738,4.512l4.375-1.938l5.105-2.574h7.656l4.01,1.48v-1.48L64.35,23.652z"/>
<path fill="#304496" d="M36.459,5.864V1.458C36.459,0.652,35.808,0,35,0c-0.803,0-1.457,0.652-1.457,1.458v4.406
	C14.89,6.629,0,21.993,0,40.834v0.316c2.5-3.179,6.379-5.217,10.734-5.217c5.283,0,9.863,2.999,12.134,7.391
	c2.058-3.981,6.016-6.818,10.675-7.314v32.531C33.543,69.349,34.197,70,35,70c0.808,0,1.459-0.651,1.459-1.459v-32.53
	c4.659,0.495,8.617,3.332,10.675,7.314c2.271-4.393,6.851-7.392,12.134-7.392c4.355,0,8.235,2.038,10.732,5.217v-0.316
	C70,21.993,55.113,6.629,36.459,5.864z M59.268,33.017c-3.098,0-6.118,0.861-8.737,2.489c-1.256,0.783-2.396,1.723-3.396,2.797
	c-0.997-1.074-2.141-2.015-3.396-2.797c-2.619-1.628-5.64-2.489-8.737-2.489c-3.095,0-6.116,0.861-8.735,2.489
	c-1.256,0.783-2.399,1.723-3.397,2.797c-1-1.074-2.14-2.015-3.396-2.797c-2.619-1.628-5.64-2.489-8.737-2.489
	c-2.533,0-4.964,0.558-7.229,1.657c0.421-2.166,1.066-4.279,1.934-6.328c1.615-3.82,3.928-7.251,6.876-10.198
	c2.946-2.948,6.379-5.262,10.198-6.878C26.468,9.598,30.667,8.75,35,8.75c4.334,0,8.534,0.848,12.488,2.52
	c3.82,1.616,7.253,3.93,10.199,6.878c2.947,2.947,5.261,6.379,6.878,10.198c0.865,2.049,1.511,4.163,1.931,6.328
	C64.232,33.574,61.801,33.017,59.268,33.017z"/>
<path fill="#304496" d="M55.418,43.75c-6.443,0-11.668,5.223-11.668,11.666s5.225,11.668,11.668,11.668s11.666-5.225,11.666-11.668
	S61.861,43.75,55.418,43.75z M55.418,64.166c-4.826,0-8.75-3.924-8.75-8.75c0-4.824,3.924-8.75,8.75-8.75
	c4.824,0,8.75,3.926,8.75,8.75C64.168,60.242,60.242,64.166,55.418,64.166z"/>
<path fill="#304496" d="M58.334,51.041h-1.459c0-0.803-0.651-1.457-1.457-1.457c-0.805,0-1.459,0.654-1.459,1.457h-0.547
	c-0.846,0-1.519,0.408-1.801,1.09c-0.281,0.684-0.094,1.448,0.504,2.046l2.698,2.698H52.5c-0.803,0-1.457,0.651-1.457,1.459
	c0,0.803,0.654,1.457,1.457,1.457h1.459c0,0.808,0.654,1.459,1.459,1.459c0.806,0,1.457-0.651,1.457-1.459h0.547
	c0.846,0,1.521-0.406,1.803-1.09c0.282-0.682,0.094-1.445-0.504-2.042l-2.698-2.7h2.312c0.806,0,1.459-0.654,1.459-1.459
	C59.793,51.694,59.139,51.041,58.334,51.041z"/>
<path fill="#304496" d="M14.584,43.75c-6.443,0-11.666,5.223-11.666,11.666s5.223,11.668,11.666,11.668S26.25,61.859,26.25,55.416
	S21.027,43.75,14.584,43.75z M14.584,64.166c-4.823,0-8.75-3.924-8.75-8.75c0-4.824,3.927-8.75,8.75-8.75
	c4.826,0,8.75,3.926,8.75,8.75C23.334,60.242,19.41,64.166,14.584,64.166z"/>
<path fill="#304496" d="M17.5,51.041h-1.457c0-0.803-0.653-1.457-1.459-1.457c-0.805,0-1.459,0.654-1.459,1.457h-0.547
	c-0.844,0-1.519,0.408-1.801,1.09c-0.282,0.684-0.094,1.448,0.504,2.046l2.698,2.698h-2.312c-0.805,0-1.459,0.651-1.459,1.459
	c0,0.803,0.654,1.457,1.459,1.457h1.457c0,0.808,0.654,1.459,1.459,1.459c0.806,0,1.459-0.651,1.459-1.459h0.547
	c0.846,0,1.519-0.406,1.801-1.09c0.284-0.682,0.094-1.445-0.502-2.042l-2.7-2.7H17.5c0.808,0,1.459-0.654,1.459-1.459
	C18.959,51.694,18.308,51.041,17.5,51.041z"/>
</svg>
