<?xml version="1.0" encoding="utf-8"?>
<!-- Generator: Adobe Illustrator 16.0.0, SVG Export Plug-In . SVG Version: 6.00 Build 0)  -->
<!DOCTYPE svg PUBLIC "-//W3C//DTD SVG 1.1//EN" "http://www.w3.org/Graphics/SVG/1.1/DTD/svg11.dtd">
<svg version="1.1" id="Layer_1" xmlns="http://www.w3.org/2000/svg" xmlns:xlink="http://www.w3.org/1999/xlink" x="0px" y="0px"
	 width="50px" height="50px" viewBox="0 0 50 50" enable-background="new 0 0 50 50" xml:space="preserve">
<path id="SVGCleanerId_1" fill="#FFFFFF" d="M31.871,26.195l2.264-0.466v-2.345l-2.264-0.466c-0.155-0.703-0.466-1.405-0.857-2.034
	l1.25-1.953l-1.643-1.642l-1.953,1.25c-0.621-0.392-1.331-0.703-2.034-0.858l-0.466-2.263h-2.345l-0.465,2.263
	c-0.703,0.155-1.405,0.466-2.035,0.858l-1.953-1.25l-1.642,1.642l1.25,1.953c-0.392,0.621-0.703,1.332-0.858,2.034l-2.263,0.466
	v2.345l2.263,0.466c0.155,0.703,0.466,1.405,0.858,2.034l-1.25,1.953l1.642,1.642l1.953-1.25c0.621,0.393,1.332,0.703,2.034,0.858
	l0.466,2.263h2.344l0.467-2.263c0.702-0.155,1.404-0.466,2.033-0.858l1.953,1.25l1.643-1.642l-1.25-1.953
	C31.405,27.601,31.716,26.971,31.871,26.195z"/>
<g>
	<circle fill="#FFFFFF" cx="25" cy="24.553" r="2.966"/>
	<path fill="#FFFFFF" d="M43.75,5.101v8.832h-4.216c-0.31,0-0.547-0.082-0.784-0.155l-3.357-1.797
		c-0.237-0.073-0.466-0.155-0.703-0.155h-5.236c-1.014,0-1.88-0.858-1.88-1.879c0-0.49,0.204-0.948,0.531-1.291l-8.186,2.769
		c-0.858,0.311-1.797-0.082-2.189-0.939c-0.393-0.858-0.082-1.879,0.784-2.345l11.332-6.013c0.784-0.392,1.643-0.466,2.419-0.237
		l9.607,3.203h1.879V5.101L43.75,5.101z"/>
</g>
<rect id="SVGCleanerId_2" x="43.75" y="4.006" fill="#4FBF9F" width="5.466" height="11.25"/>
<rect id="SVGCleanerId_3" x="0.784" y="33.851" fill="#FDBF5E" width="5.466" height="11.25"/>
<path id="SVGCleanerId_4" fill="#193651" d="M36.879,40.182l-0.939-1.25c0.393-0.311,0.785-0.62,1.168-0.939l1.014,1.169
	C37.736,39.471,37.345,39.863,36.879,40.182z M39.297,37.992l-1.168-1.094c0.311-0.393,0.703-0.703,1.014-1.096l1.25,0.939
	C40.082,37.209,39.689,37.601,39.297,37.992z M41.332,35.492L40,34.635c0.311-0.393,0.547-0.857,0.785-1.25l1.331,0.785
	C41.953,34.553,41.643,35.02,41.332,35.492z M42.893,32.601l-1.405-0.62c0.237-0.467,0.392-0.94,0.548-1.406l1.486,0.547
	C43.357,31.661,43.129,32.135,42.893,32.601z M43.987,29.553L42.5,29.161c0.155-0.466,0.237-0.939,0.311-1.487l1.561,0.237
	C44.297,28.54,44.143,29.006,43.987,29.553z M44.535,26.351l-1.561-0.155c0.081-0.466,0.081-1.014,0.081-1.486h1.552
	C44.607,25.256,44.607,25.803,44.535,26.351z M43.047,23.222c0-0.466-0.081-1.013-0.154-1.487l1.561-0.237
	c0.081,0.547,0.154,1.095,0.154,1.642L43.047,23.222z"/>
<path id="SVGCleanerId_5" fill="#193651" d="M5.621,27.601c-0.155-0.548-0.155-1.095-0.237-1.642l1.561-0.082
	c0.082,0.465,0.082,1.013,0.155,1.486L5.621,27.601z M6.879,24.398H5.311c0-0.548,0-1.095,0.082-1.643l1.561,0.155
	C6.953,23.385,6.953,23.851,6.879,24.398z M7.189,21.432l-1.561-0.237c0.082-0.547,0.237-1.095,0.311-1.561l1.487,0.392
	C7.345,20.411,7.263,20.885,7.189,21.432z M7.966,18.54l-1.487-0.547c0.155-0.547,0.393-1.013,0.629-1.487l1.405,0.621
	C8.284,17.601,8.121,18.066,7.966,18.54z M9.142,15.803l-1.332-0.784c0.237-0.466,0.547-0.939,0.858-1.405L10,14.472
	C9.689,14.945,9.453,15.337,9.142,15.803z M10.858,13.303l-1.25-0.939c0.311-0.392,0.703-0.858,1.095-1.25l1.168,1.095
	C11.487,12.519,11.168,12.911,10.858,13.303z M12.892,11.114l-1.013-1.168c0.393-0.392,0.858-0.703,1.25-1.013l0.94,1.25
	C13.668,10.493,13.284,10.803,12.892,11.114z"/>
<g>
	<path id="SVGCleanerId_1_1_" fill="#FFFFFF" d="M31.871,26.195l2.264-0.466v-2.345l-2.264-0.466
		c-0.155-0.703-0.466-1.405-0.857-2.034l1.25-1.953l-1.643-1.642l-1.953,1.25c-0.621-0.392-1.331-0.703-2.034-0.858l-0.466-2.263
		h-2.345l-0.465,2.263c-0.703,0.155-1.405,0.466-2.035,0.858l-1.953-1.25l-1.642,1.642l1.25,1.953
		c-0.392,0.621-0.703,1.332-0.858,2.034l-2.263,0.466v2.345l2.263,0.466c0.155,0.703,0.466,1.405,0.858,2.034l-1.25,1.953
		l1.642,1.642l1.953-1.25c0.621,0.393,1.332,0.703,2.034,0.858l0.466,2.263h2.344l0.467-2.263c0.702-0.155,1.404-0.466,2.033-0.858
		l1.953,1.25l1.643-1.642l-1.25-1.953C31.405,27.601,31.716,26.971,31.871,26.195z"/>
</g>
<g>
	<rect id="SVGCleanerId_2_1_" x="43.75" y="4.006" fill="#E6CC2C" width="5.466" height="11.25"/>
</g>
<g>
	<rect id="SVGCleanerId_3_1_" x="0.784" y="33.851" fill="#E6CC2C" width="5.466" height="11.25"/>
</g>
<g>
	<path id="SVGCleanerId_4_1_" fill="#304496" d="M36.879,40.182l-0.939-1.25c0.393-0.311,0.785-0.62,1.168-0.939l1.014,1.169
		C37.736,39.471,37.345,39.863,36.879,40.182z M39.297,37.992l-1.168-1.094c0.311-0.393,0.703-0.703,1.014-1.096l1.25,0.939
		C40.082,37.209,39.689,37.601,39.297,37.992z M41.332,35.492L40,34.635c0.311-0.393,0.547-0.857,0.785-1.25l1.331,0.785
		C41.953,34.553,41.643,35.02,41.332,35.492z M42.893,32.601l-1.405-0.62c0.237-0.467,0.392-0.94,0.548-1.406l1.486,0.547
		C43.357,31.661,43.129,32.135,42.893,32.601z M43.987,29.553L42.5,29.161c0.155-0.466,0.237-0.939,0.311-1.487l1.561,0.237
		C44.297,28.54,44.143,29.006,43.987,29.553z M44.535,26.351l-1.561-0.155c0.081-0.466,0.081-1.014,0.081-1.486h1.552
		C44.607,25.256,44.607,25.803,44.535,26.351z M43.047,23.222c0-0.466-0.081-1.013-0.154-1.487l1.561-0.237
		c0.081,0.547,0.154,1.095,0.154,1.642L43.047,23.222z"/>
</g>
<g>
	<path id="SVGCleanerId_5_1_" fill="#304496" d="M5.621,27.601c-0.155-0.548-0.155-1.095-0.237-1.642l1.561-0.082
		c0.082,0.465,0.082,1.013,0.155,1.486L5.621,27.601z M6.879,24.398H5.311c0-0.548,0-1.095,0.082-1.643l1.561,0.155
		C6.953,23.385,6.953,23.851,6.879,24.398z M7.189,21.432l-1.561-0.237c0.082-0.547,0.237-1.095,0.311-1.561l1.487,0.392
		C7.345,20.411,7.263,20.885,7.189,21.432z M7.966,18.54l-1.487-0.547c0.155-0.547,0.393-1.013,0.629-1.487l1.405,0.621
		C8.284,17.601,8.121,18.066,7.966,18.54z M9.142,15.803l-1.332-0.784c0.237-0.466,0.547-0.939,0.858-1.405L10,14.472
		C9.689,14.945,9.453,15.337,9.142,15.803z M10.858,13.303l-1.25-0.939c0.311-0.392,0.703-0.858,1.095-1.25l1.168,1.095
		C11.487,12.519,11.168,12.911,10.858,13.303z M12.892,11.114l-1.013-1.168c0.393-0.392,0.858-0.703,1.25-1.013l0.94,1.25
		C13.668,10.493,13.284,10.803,12.892,11.114z"/>
</g>
<path fill="#304496" d="M42.966,3.221v1.095h-1.013L32.5,1.187c-1.013-0.311-2.107-0.237-2.966,0.237l-11.405,5.94
	c-1.25,0.629-1.716,2.107-1.095,3.357c0.547,1.168,1.953,1.716,3.129,1.332l6.561-2.263c0,0.082,1.168,2.811,2.654,2.811h5.237
	c0.155,0,0.237,0,0.392,0.082l3.285,1.797l0.081,0.082c0.311,0.155,0.703,0.155,1.013,0.155h3.596v1.405H50v-12.9H42.966z
	 M42.966,13.148h-3.513c-0.156,0-0.311,0-0.466-0.082l-3.284-1.797h-0.156c-0.311-0.082-0.62-0.155-0.939-0.155h-5.236
	c-0.604,0-1.095-0.49-1.095-1.095s0.49-1.095,1.095-1.095h4.216c1.169,0,2.189-1.013,2.189-2.19h-1.561
	c0,0.311-0.311,0.621-0.629,0.621h-4.298c-0.547,0-1.094,0.155-1.486,0.466l-8.195,2.827c-0.465,0.155-1.013-0.082-1.25-0.547
	c-0.237-0.466,0-1.095,0.466-1.332l11.332-6.013c0.548-0.311,1.169-0.311,1.798-0.155l9.763,3.284h1.25V13.148L42.966,13.148z
	 M48.439,14.471h-3.904V4.79h3.904V14.471z"/>
<path fill="#FFFFFF" d="M31.486,40.959l-11.331,6.013c-0.784,0.392-1.642,0.466-2.418,0.237l-9.608-3.203H6.25v-8.832h4.216
	c0.311,0,0.547,0.082,0.784,0.155l3.358,1.798c0.237,0.073,0.466,0.154,0.703,0.154h5.237c1.013,0,1.879,0.858,1.879,1.879
	c0,0.49-0.204,0.949-0.531,1.291l8.187-2.77c0.857-0.311,1.797,0.082,2.189,0.939C32.655,39.471,32.345,40.492,31.486,40.959z"/>
<g>
	<path fill="#304496" d="M32.966,38.385c-0.548-1.168-1.952-1.716-3.13-1.332l-6.552,2.264c0-0.082,0-0.082,0-0.155
		c0-1.487-1.168-2.655-2.655-2.655h-5.237c-0.155,0-0.237,0-0.392-0.082l-3.284-1.715l-0.082-0.082
		c-0.311-0.155-0.703-0.155-1.013-0.155H7.026v-1.405H0v12.811h7.034v-1.095h1.013l9.453,3.129c0.392,0.155,0.784,0.155,1.168,0.155
		c0.621,0,1.25-0.155,1.797-0.466l11.405-5.858C33.047,41.113,33.595,39.635,32.966,38.385z M1.561,34.635h3.905v9.689H1.561V34.635
		z M31.095,40.338l-11.332,6.013c-0.547,0.311-1.168,0.311-1.797,0.155l-9.763-3.284H7.034v-7.263h3.513
		c0.155,0,0.311,0,0.466,0.081l3.284,1.798l0.082,0.081C14.689,38,15,38.074,15.318,38.074h5.237c0.621,0,1.095,0.466,1.095,1.095
		c0,0.311-0.155,0.621-0.311,0.784l-0.858,0.311H16.34c-1.168,0-2.189,1.014-2.189,2.189h1.56c0-0.311,0.311-0.621,0.621-0.621
		h4.297c0.547,0,1.095-0.154,1.487-0.465l8.195-2.827c0.465-0.155,1.013,0.081,1.25,0.548
		C31.797,39.471,31.561,40.101,31.095,40.338z"/>
	<path fill="#304496" d="M26.797,34.472h-3.594l-0.547-2.419c-0.466-0.154-0.939-0.311-1.332-0.547l-2.108,1.332l-2.5-2.5
		l1.332-2.108c-0.237-0.466-0.392-0.858-0.547-1.331l-2.418-0.548v-3.595l2.418-0.547c0.155-0.466,0.311-0.939,0.547-1.332
		l-1.332-2.108l2.5-2.5l2.108,1.332c0.466-0.237,0.858-0.392,1.332-0.547l0.547-2.418h3.594l0.548,2.418
		c0.466,0.155,0.939,0.311,1.331,0.547l2.108-1.332l2.5,2.5l-1.331,2.108c0.236,0.466,0.392,0.858,0.547,1.332l2.418,0.547v3.595
		L32.5,26.898c-0.155,0.465-0.311,0.939-0.547,1.331l1.331,2.108l-2.5,2.5l-2.108-1.332c-0.465,0.236-0.857,0.393-1.331,0.547
		L26.797,34.472z M24.453,32.911h1.095l0.466-2.108l0.465-0.082c0.621-0.154,1.25-0.392,1.798-0.783l0.392-0.237l1.879,1.168
		l0.785-0.784l-1.168-1.879l0.236-0.393c0.311-0.547,0.621-1.168,0.785-1.797l0.081-0.466l2.108-0.466v-1.095l-2.108-0.466
		l-0.081-0.466c-0.156-0.621-0.393-1.25-0.785-1.797l-0.236-0.392l1.168-1.879l-0.785-0.784l-1.879,1.168l-0.392-0.237
		c-0.548-0.311-1.169-0.621-1.798-0.784l-0.465-0.082l-0.466-2.108h-1.095l-0.466,2.108l-0.465,0.082
		c-0.621,0.155-1.25,0.392-1.797,0.784l-0.393,0.237l-1.879-1.168l-0.784,0.784l1.168,1.879L19.6,21.26
		c-0.311,0.547-0.621,1.168-0.784,1.797l-0.082,0.466l-2.108,0.466v1.095l2.108,0.466l0.082,0.466
		c0.155,0.621,0.392,1.25,0.784,1.797l0.237,0.393l-1.168,1.879l0.784,0.784l1.871-1.168l0.392,0.237
		c0.547,0.311,1.168,0.621,1.797,0.783l0.465,0.082L24.453,32.911z"/>
</g>
<path fill="#304496" d="M25,28.303c-2.108,0-3.75-1.715-3.75-3.75c0-2.034,1.716-3.75,3.75-3.75c2.107,0,3.75,1.716,3.75,3.75
	C28.75,26.588,27.107,28.303,25,28.303z M25,22.364c-1.25,0-2.189,1.013-2.189,2.189c0,1.25,1.013,2.189,2.189,2.189
	c1.25,0,2.189-1.013,2.189-2.189C27.189,23.303,26.25,22.364,25,22.364z"/>
</svg>
