<?xml version="1.0" encoding="utf-8"?>
<!-- Generator: Adobe Illustrator 16.0.0, SVG Export Plug-In . SVG Version: 6.00 Build 0)  -->
<!DOCTYPE svg PUBLIC "-//W3C//DTD SVG 1.1//EN" "http://www.w3.org/Graphics/SVG/1.1/DTD/svg11.dtd">
<svg version="1.1" id="Layer_1" xmlns="http://www.w3.org/2000/svg" xmlns:xlink="http://www.w3.org/1999/xlink" x="0px" y="0px"
	 width="70px" height="70px" viewBox="0 0 70 70" enable-background="new 0 0 70 70" xml:space="preserve">
<rect x="12.751" y="30.904" fill="#D8DCEA" width="43.983" height="37.874"/>
<rect x="29.177" y="31.447" fill="#E6E9ED" width="11.946" height="6.516"/>
<path fill="#E6CC2C" d="M50.836,13.148l-5.291-6.342c0,0-5.894-1.827-6.182-1.827c-0.291,0-6.268-0.397-6.268-0.397l-7.809,3.096
	l-4.242,4.279l-3.085,5.46l-0.481,2.602h0.867l2.507-0.867h3.664l2.314,1.445l1.832,1.121l3.277-2.386l4.05-0.18l2.603,0.18
	l2.507,2.386l2.313-1.024l2.702-1.362h4.048l2.121,0.784v-0.784L50.836,13.148z"/>
<path fill="#304496" d="M36.326,29.456v-8.497c2.435,0.449,4.479,2.016,5.582,4.146c1.311-2.542,3.967-4.28,7.025-4.28
	c2.523,0,4.77,1.182,6.219,3.022v-0.184c0-10.708-8.307-19.478-18.826-20.22v-1.5l0,0c0-0.8-0.647-1.448-1.447-1.448
	c-0.8,0-1.448,0.648-1.448,1.448c0,0.002,0,0.002,0,0.004v1.497c-10.521,0.742-18.825,9.511-18.825,20.219v0.184
	c1.449-1.839,3.695-3.021,6.217-3.021c3.06,0,5.714,1.739,7.027,4.28c1.103-2.13,3.145-3.697,5.581-4.146v8.497h-21.72V70h46.333
	V29.456H36.326z M29.182,19.553c-0.47,0.292-0.913,0.618-1.331,0.976c-0.416-0.357-0.861-0.683-1.331-0.976
	c-1.707-1.061-3.678-1.623-5.697-1.623c-0.835,0-1.654,0.092-2.451,0.277c0.839-2.547,2.268-4.88,4.22-6.831
	c3.282-3.283,7.646-5.089,12.286-5.089c4.641,0,9.007,1.807,12.286,5.089c1.951,1.95,3.381,4.283,4.221,6.831
	c-0.797-0.186-1.615-0.277-2.451-0.277c-2.02,0-3.988,0.562-5.697,1.623c-0.469,0.292-0.912,0.618-1.328,0.976
	c-0.42-0.357-0.861-0.683-1.332-0.976c-1.709-1.061-3.678-1.623-5.697-1.623C32.86,17.931,30.89,18.491,29.182,19.553z
	 M39.223,32.352v4.345h-8.688v-4.345H39.223z M55.152,67.104H14.606V32.352h13.032v7.24h0.01c0,0.801,0.648,1.449,1.448,1.449
	c0.799,0,1.448-0.648,1.448-1.449c0,0.801,0.649,1.449,1.448,1.449c0.8,0,1.448-0.648,1.448-1.449c0,0.801,0.648,1.449,1.448,1.449
	c0.799,0,1.449-0.648,1.449-1.449c0,0.801,0.647,1.449,1.447,1.449s1.446-0.648,1.446-1.449c0,0.801,0.649,1.449,1.45,1.449
	c0.798,0,1.447-0.648,1.447-1.449c0-0.053-0.004-0.104-0.008-0.149v-7.09h13.031V67.104z"/>
<path fill="#304496" d="M24.744,61.313h-5.792c-0.8,0-1.448,0.646-1.448,1.448c0,0.797,0.647,1.446,1.448,1.446h5.792
	c0.799,0,1.447-0.649,1.447-1.446C26.191,61.959,25.543,61.313,24.744,61.313z"/>
<path fill="#304496" d="M30.535,55.52H18.951c-0.8,0-1.448,0.648-1.448,1.449c0,0.799,0.647,1.447,1.448,1.447h11.583
	c0.8,0,1.448-0.648,1.448-1.447C31.982,56.168,31.335,55.52,30.535,55.52z"/>
</svg>
