<?xml version="1.0" encoding="utf-8"?>
<!-- Generator: Adobe Illustrator 16.0.0, SVG Export Plug-In . SVG Version: 6.00 Build 0)  -->
<!DOCTYPE svg PUBLIC "-//W3C//DTD SVG 1.1//EN" "http://www.w3.org/Graphics/SVG/1.1/DTD/svg11.dtd">
<svg version="1.1" id="Layer_1" xmlns="http://www.w3.org/2000/svg" xmlns:xlink="http://www.w3.org/1999/xlink" x="0px" y="0px"
	 width="50px" height="50px" viewBox="0 0 50 50" enable-background="new 0 0 50 50" xml:space="preserve">
<path fill="#E6CC2C" d="M46.387,18.067l-6.348-7.618l-6.446-3.711l-8.252-1.66l-4.736,0.684L12.987,7.91L7.03,12.988l-4.2,5.86
	L1.366,26.27L4.002,25c0,0,6.739,0.391,7.227,0.244s5.273,2.978,5.273,2.978l3.906-2.978l6.152-0.928l7.324,3.906L41.602,25
	l7.715,0.244L46.387,18.067z"/>
<path fill="#304496" d="M26.041,4.188V1.042C26.041,0.466,25.575,0,25,0s-1.042,0.466-1.042,1.042v3.147
	C10.634,4.735,0,15.708,0,29.168v0.226c1.785-2.271,4.556-3.727,7.667-3.727c3.773,0,7.046,2.143,8.667,5.28
	c1.47-2.845,4.297-4.871,7.625-5.225v19.071c0,2.876,2.332,5.207,5.208,5.207c2.877,0,5.208-2.331,5.208-5.207
	c0-0.577-0.466-1.043-1.04-1.043c-0.576,0-1.043,0.466-1.043,1.043c0,1.723-1.402,3.125-3.125,3.125s-3.125-1.402-3.125-3.125
	V25.722c3.328,0.354,6.156,2.38,7.625,5.225c1.621-3.138,4.894-5.28,8.668-5.28c3.111,0,5.881,1.456,7.666,3.726v-0.226
	C50,15.708,39.365,4.735,26.041,4.188z M42.334,23.583c-2.213,0-4.371,0.615-6.242,1.778c-0.896,0.557-1.711,1.23-2.426,1.998
	c-0.714-0.768-1.529-1.44-2.426-1.998c-1.871-1.163-4.029-1.778-6.24-1.778c-2.212,0-4.37,0.615-6.24,1.778
	c-0.898,0.557-1.713,1.23-2.426,1.998c-0.713-0.768-1.529-1.44-2.426-1.998c-1.871-1.163-4.029-1.778-6.241-1.778
	c-1.811,0-3.547,0.398-5.164,1.184c0.3-1.547,0.761-3.057,1.38-4.52c1.154-2.728,2.807-5.18,4.912-7.285
	c2.105-2.105,4.556-3.758,7.286-4.913c2.823-1.194,5.825-1.8,8.919-1.8c3.094,0,6.097,0.606,8.92,1.8
	c2.729,1.154,5.179,2.807,7.284,4.913c2.106,2.105,3.759,4.557,4.913,7.285c0.619,1.463,1.079,2.974,1.38,4.52
	C45.879,23.982,44.143,23.583,42.334,23.583z"/>
</svg>
